<svg width="284" height="64" viewBox="0 0 284 64" fill="none" xmlns="http://www.w3.org/2000/svg">
<mask id="mask0_2_541" style="mask-type:luminance" maskUnits="userSpaceOnUse" x="22" y="31" width="39" height="33">
<path d="M22.4641 31.2127H60.0588V64H22.4641V31.2127Z" fill="white"/>
</mask>
<g mask="url(#mask0_2_541)">
<path d="M41.4521 31.9978L23.0386 64.0044H41.6276L60.0411 31.9978H41.4521Z" fill="white"/>
</g>
<mask id="mask1_2_541" style="mask-type:luminance" maskUnits="userSpaceOnUse" x="30" y="14" width="31" height="19">
<path d="M30.3242 14.3694H60.0587V32.3355H30.3242V14.3694Z" fill="white"/>
</mask>
<g mask="url(#mask1_2_541)">
<path d="M50.0316 14.6062H31.4426L41.4521 31.9978H60.0411L50.0316 14.6062Z" fill="#D9D9D9"/>
</g>
<mask id="mask2_2_541" style="mask-type:luminance" maskUnits="userSpaceOnUse" x="0" y="0" width="39" height="33">
<path d="M0.265137 0H38.1844V32.3355H0.265137V0Z" fill="white"/>
</mask>
<g mask="url(#mask2_2_541)">
<path d="M18.8628 -0.00439453H0.273804L18.6873 31.9978H37.2763L18.8628 -0.00439453Z" fill="white"/>
</g>
<path d="M18.6874 31.9978L8.68237 49.3937H27.2714L37.2764 31.9978H18.6874Z" fill="#D9D9D9"/>
<path d="M69.3619 43.8921L75.2395 16.0305H82.6962L78.0994 37.8215H87.1877L85.8894 43.8921H69.3619Z" fill="white"/>
<path d="M100.901 44.2781C98.9709 44.2781 97.3129 43.9316 95.9356 43.2429C94.5539 42.5411 93.4968 41.5849 92.7599 40.3655C92.0318 39.1505 91.6721 37.7645 91.6721 36.2074C91.6721 35.8214 91.6897 35.3959 91.7248 34.9266C91.7598 34.4616 91.8169 34.0274 91.9002 33.6282L95.6899 16.0305H103.129L99.427 33.4352C99.3437 33.7993 99.2779 34.1721 99.234 34.5581C99.1858 34.9353 99.1639 35.2906 99.1639 35.6284C99.1639 36.3916 99.3656 36.9881 99.7779 37.418C100.199 37.839 100.813 38.0496 101.62 38.0496C102.366 38.0496 103.006 37.8873 103.533 37.5583C104.059 37.2206 104.506 36.6898 104.884 35.9617C105.256 35.2248 105.572 34.2555 105.831 33.0492L109.463 16.0305H116.919L113.13 33.7861C112.647 36.0582 111.924 37.9706 110.954 39.5234C109.994 41.0805 108.7 42.2604 107.077 43.0675C105.449 43.8745 103.392 44.2781 100.901 44.2781Z" fill="white"/>
<path d="M114.257 43.8921L124.994 29.1016L120.731 16.0305H128.661L131.012 24.9785L136.89 16.0305H145.434L135.188 29.856L140.171 43.8921H131.942L129.152 34.4002L122.713 43.8921H114.257Z" fill="white"/>
<path d="M164.93 44.2781C162.614 44.2781 160.689 43.822 159.158 42.9096C157.636 41.9973 156.5 40.7296 155.754 39.1023C155.004 37.4794 154.631 35.5889 154.631 33.4353C154.631 31.7773 154.807 30.1017 155.158 28.4174C155.517 26.7243 156.074 25.1101 156.824 23.575C157.57 22.0441 158.531 20.68 159.702 19.487C160.868 18.2851 162.263 17.3377 163.877 16.6447C165.492 15.9429 167.343 15.5919 169.439 15.5919C171.286 15.5919 172.948 15.8156 174.422 16.2587C175.896 16.6929 177.286 17.307 178.598 18.1009L175.773 23.9083C174.589 23.2065 173.501 22.6802 172.51 22.3293C171.527 21.9784 170.501 21.8029 169.439 21.8029C168.536 21.8029 167.707 22.0091 166.948 22.417C166.185 22.8293 165.509 23.3951 164.913 24.1188C164.325 24.847 163.829 25.6804 163.421 26.6278C163.009 27.5665 162.702 28.5841 162.491 29.6806C162.281 30.7816 162.176 31.9045 162.176 33.0493C162.176 34.7468 162.531 36.0144 163.246 36.8566C163.97 37.6987 164.992 38.1198 166.316 38.1198C167.439 38.1198 168.536 37.9794 169.615 37.6987C170.703 37.418 171.935 36.9882 173.317 36.4004V42.5587C171.957 43.1684 170.584 43.607 169.194 43.8746C167.799 44.1422 166.378 44.2781 164.93 44.2781Z" fill="white"/>
<path d="M174.926 43.8921L189.102 16.0305H198.682L201.015 43.8921H193.769L193.576 38.6637H185.032L182.645 43.8921H174.926ZM187.769 32.7334H193.348L193.05 24.7329C193.036 24.1013 193.023 23.4828 193.015 22.8731C193.001 22.2678 193.001 21.6888 193.015 21.1361H192.909C192.708 21.7239 192.497 22.2941 192.278 22.8556C192.054 23.417 191.813 23.9916 191.558 24.575L187.769 32.7334Z" fill="white"/>
<path d="M204.222 43.8921L210.099 16.0305H217.486C220.679 16.0305 223.122 16.6709 224.82 17.9429C226.526 19.2193 227.381 21.1318 227.381 23.6802C227.381 25.3777 227.101 26.7988 226.539 27.9436C225.987 29.0797 225.298 29.992 224.469 30.6807C223.649 31.3605 222.828 31.8737 222.013 32.2246L227.048 43.8921H218.925L215.205 33.751H213.819L211.661 43.8921H204.222ZM215.03 28.1015H215.995C216.486 28.1015 216.964 28.0314 217.433 27.891C217.911 27.7419 218.337 27.5138 218.714 27.2067C219.087 26.8909 219.385 26.483 219.609 25.9786C219.828 25.4785 219.942 24.8689 219.942 24.1539C219.942 23.4784 219.749 22.9038 219.363 22.4345C218.986 21.9695 218.319 21.7327 217.363 21.7327H216.363L215.03 28.1015Z" fill="white"/>
<path d="M241.386 44.2781C238.237 44.2781 235.706 43.3482 233.789 41.4885C231.881 39.6287 230.929 36.8566 230.929 33.1721C230.929 31.3737 231.14 29.6192 231.561 27.9086C231.991 26.2023 232.636 24.6057 233.491 23.1188C234.342 21.6362 235.421 20.3291 236.719 19.2062C238.017 18.0746 239.544 17.1885 241.298 16.5569C243.053 15.9165 245.04 15.5919 247.264 15.5919C248.878 15.5919 250.413 15.7674 251.878 16.1183C253.352 16.4604 254.655 16.9692 255.791 17.6447L252.983 23.5223C252.185 23.0574 251.299 22.6538 250.317 22.3117C249.334 21.974 248.281 21.8029 247.158 21.8029C245.531 21.8029 244.163 22.1845 243.053 22.9433C241.939 23.6934 241.044 24.6452 240.369 25.8032C239.702 26.9611 239.215 28.1893 238.912 29.4876C238.618 30.7772 238.474 31.9615 238.474 33.0493C238.474 34.2204 238.623 35.181 238.93 35.9267C239.232 36.6636 239.675 37.2075 240.263 37.5584C240.86 37.9093 241.588 38.0847 242.456 38.0847C242.956 38.0847 243.377 38.0628 243.72 38.0145C244.057 37.9707 244.478 37.9049 244.983 37.8215L245.965 33.4002H241.597L242.877 27.5752H254.492L251.317 42.7342C249.983 43.1684 248.514 43.5368 246.913 43.8395C245.307 44.129 243.465 44.2781 241.386 44.2781Z" fill="white"/>
<path d="M268.874 44.2781C266.497 44.2781 264.523 43.8351 262.944 42.9447C261.365 42.0587 260.172 40.813 259.365 39.2076C258.567 37.5935 258.172 35.7074 258.172 33.5405C258.172 32.1019 258.303 30.6632 258.575 29.2245C258.843 27.7858 259.246 26.3997 259.786 25.0663C260.334 23.7241 261.018 22.4828 261.839 21.3467C262.668 20.2019 263.637 19.2018 264.751 18.3465C265.874 17.4824 267.142 16.8113 268.558 16.3288C269.971 15.8376 271.545 15.5919 273.278 15.5919C276.704 15.5919 279.3 16.5745 281.068 18.5395C282.844 20.4958 283.735 23.0925 283.735 26.3295C283.735 27.7814 283.603 29.2245 283.349 30.6632C283.09 32.1019 282.7 33.4967 282.173 34.8389C281.647 36.1723 280.972 37.4136 280.156 38.5584C279.349 39.7076 278.392 40.7077 277.296 41.5586C276.195 42.414 274.945 43.0807 273.541 43.5588C272.146 44.0369 270.594 44.2781 268.874 44.2781ZM269.523 38.1198C270.142 38.1198 270.738 37.9794 271.313 37.6987C271.883 37.418 272.423 37.0232 272.927 36.5057C273.427 35.9925 273.879 35.3784 274.278 34.6634C274.673 33.9529 275.019 33.1633 275.313 32.2948C275.603 31.4176 275.826 30.4833 275.98 29.4876C276.129 28.4963 276.208 27.4656 276.208 26.3997C276.208 24.961 275.901 23.8337 275.296 23.0135C274.686 22.1845 273.804 21.7678 272.646 21.7678C271.953 21.7678 271.3 21.9345 270.681 22.2591C270.072 22.5749 269.51 23.0135 268.997 23.575C268.479 24.1276 268.019 24.7768 267.611 25.5225C267.212 26.2725 266.865 27.084 266.576 27.9612C266.295 28.8385 266.076 29.7508 265.927 30.6982C265.786 31.6369 265.716 32.5712 265.716 33.5055C265.716 34.5143 265.856 35.3608 266.137 36.0495C266.427 36.7294 266.857 37.2426 267.418 37.5935C267.979 37.9444 268.681 38.1198 269.523 38.1198Z" fill="white"/>
<path d="M72.5199 61.0858H71.5198V53.4537H68.8354V52.5765H75.2043V53.4537H72.5199V61.0858Z" fill="white"/>
<path d="M84.2384 61.0858H79.5012V52.5765H84.2384V53.4537H80.4837V56.2083H84.0103V57.068H80.4837V60.2086H84.2384V61.0858Z" fill="white"/>
<path d="M94.2722 61.0858H88.4297V60.3138L92.9388 53.4713H88.57V52.5765H94.1494V53.3485L89.6403 60.191H94.2722V61.0858Z" fill="white"/>
<path d="M107.198 56.8399L109.462 52.5765H110.532L107.69 57.7874V61.0858H106.69V57.84L103.865 52.5765H104.953L107.198 56.8399Z" fill="white"/>
<path d="M119.454 61.0858H114.717V52.5765H119.454V53.4537H115.7V56.2083H119.226V57.068H115.7V60.2086H119.454V61.0858Z" fill="white"/>
<path d="M126.962 61.0858H125.961V53.4537H123.277V52.5765H129.646V53.4537H126.962V61.0858Z" fill="white"/>
<path d="M140.083 61.0858H138.908L135.82 56.9627L134.925 57.7523V61.0858H133.943V52.5765H134.925V56.8048L138.785 52.5765H139.943L136.539 56.2785L140.083 61.0858Z" fill="white"/>
<path d="M149.592 61.0859L148.539 58.3839H145.135L144.083 61.0859H143.083L146.451 52.5414H147.276L150.627 61.0859H149.592ZM148.223 57.4891L147.241 54.8574C147.109 54.5196 146.982 54.1117 146.855 53.6292C146.758 54.0064 146.636 54.4144 146.486 54.8574L145.486 57.4891H148.223Z" fill="white"/>
<path d="M159.941 61.0858H154.099V60.3138L158.608 53.4713H154.239V52.5765H159.818V53.3485L155.309 60.191H159.941V61.0858Z" fill="white"/>
<path d="M164.605 61.0858V52.5765H165.587V61.0858H164.605Z" fill="white"/>
<path d="M175.726 58.8225C175.726 59.5726 175.449 60.156 174.901 60.5771C174.362 60.9981 173.629 61.2087 172.708 61.2087C171.699 61.2087 170.923 61.0771 170.374 60.8051V59.8577C170.725 60.0112 171.103 60.1297 171.515 60.2086C171.923 60.2919 172.331 60.3314 172.743 60.3314C173.397 60.3314 173.888 60.2086 174.217 59.963C174.555 59.7086 174.726 59.3577 174.726 58.9103C174.726 58.6208 174.664 58.3795 174.55 58.1909C174.432 58.0067 174.234 57.8356 173.954 57.6821C173.682 57.5198 173.261 57.34 172.69 57.1382C171.892 56.8487 171.326 56.5066 170.989 56.1206C170.646 55.7346 170.48 55.2346 170.48 54.6117C170.48 53.9582 170.725 53.4362 171.217 53.0502C171.717 52.6555 172.375 52.4537 173.182 52.4537C174.024 52.4537 174.8 52.6116 175.515 52.9274L175.199 53.7871C174.498 53.4976 173.818 53.3485 173.164 53.3485C172.638 53.3485 172.221 53.4625 171.918 53.6818C171.625 53.9055 171.48 54.217 171.48 54.6117C171.48 54.9188 171.532 55.1644 171.638 55.3486C171.752 55.5372 171.94 55.7127 172.199 55.875C172.454 56.0285 172.853 56.1996 173.392 56.3838C174.278 56.6996 174.888 57.0417 175.217 57.4014C175.555 57.7655 175.726 58.2392 175.726 58.8225Z" fill="white"/>
<path d="M186.936 61.0858H185.935V57.0856H181.461V61.0858H180.479V52.5765H181.461V56.2083H185.935V52.5765H186.936V61.0858Z" fill="white"/>
</svg>
