<svg width="20" height="20" viewBox="0 0 20 20" fill="none" xmlns="http://www.w3.org/2000/svg">
<g id="auto_stories">
<mask id="mask0_351_115" style="mask-type:alpha" maskUnits="userSpaceOnUse" x="0" y="0" width="20" height="20">
<rect id="Bounding box" width="20" height="20" fill="#4F7471"/>
</mask>
<g mask="url(#mask0_351_115)">
<path id="auto_stories_2" d="M10 16.2917C9.84726 16.2917 9.69796 16.2708 9.55212 16.2292C9.40629 16.1875 9.27087 16.1319 9.14587 16.0625C8.57643 15.7153 7.97921 15.4514 7.35421 15.2708C6.72921 15.0903 6.08337 15 5.41671 15C4.83337 15 4.26046 15.0764 3.69796 15.2292C3.13546 15.3819 2.59726 15.5972 2.08337 15.875C1.79171 16.0278 1.51046 16.0208 1.23962 15.8542C0.968791 15.6875 0.833374 15.4444 0.833374 15.125V5.08334C0.833374 4.93056 0.871568 4.78473 0.947957 4.64584C1.02435 4.50695 1.13893 4.40278 1.29171 4.33334C1.9306 4 2.59726 3.75 3.29171 3.58334C3.98615 3.41667 4.69449 3.33334 5.41671 3.33334C6.22226 3.33334 7.01046 3.4375 7.78129 3.64584C8.55212 3.85417 9.29171 4.16667 10 4.58334V14.6667C10.7084 14.2222 11.4514 13.8889 12.2292 13.6667C13.007 13.4444 13.7917 13.3333 14.5834 13.3333C15.0834 13.3333 15.573 13.375 16.0521 13.4583C16.5313 13.5417 17.0139 13.6667 17.5 13.8333V3.83334C17.7084 3.90278 17.9132 3.9757 18.1146 4.05209C18.316 4.12848 18.5139 4.22223 18.7084 4.33334C18.8612 4.40278 18.9757 4.50695 19.0521 4.64584C19.1285 4.78473 19.1667 4.93056 19.1667 5.08334V15.125C19.1667 15.4444 19.0313 15.6875 18.7605 15.8542C18.4896 16.0208 18.2084 16.0278 17.9167 15.875C17.4028 15.5972 16.8646 15.3819 16.3021 15.2292C15.7396 15.0764 15.1667 15 14.5834 15C13.9167 15 13.2709 15.0903 12.6459 15.2708C12.0209 15.4514 11.4237 15.7153 10.8542 16.0625C10.7292 16.1319 10.5938 16.1875 10.448 16.2292C10.3021 16.2708 10.1528 16.2917 10 16.2917ZM12.3542 11.875C12.2153 12 12.066 12.0243 11.9063 11.9479C11.7466 11.8715 11.6667 11.7431 11.6667 11.5625V4.75C11.6667 4.69445 11.6771 4.64236 11.698 4.59375C11.7188 4.54514 11.75 4.5 11.7917 4.45834L15.125 1.125C15.2639 0.986115 15.4167 0.951392 15.5834 1.02084C15.75 1.09028 15.8334 1.22223 15.8334 1.41667V8.5625C15.8334 8.63195 15.8195 8.69098 15.7917 8.73959C15.7639 8.7882 15.7292 8.83334 15.6875 8.875L12.3542 11.875Z" fill="white" fill-opacity="0.8"/>
</g>
</g>
</svg>
