<svg width="20" height="20" viewBox="0 0 20 20" fill="none" xmlns="http://www.w3.org/2000/svg">
<g id="book">
<g id="Vector">
<path d="M18.3333 4.04167V13.95C18.3333 14.7583 17.675 15.5 16.8667 15.6L16.6083 15.6333C15.2417 15.8167 13.3167 16.3833 11.7667 17.0333C11.225 17.2583 10.625 16.85 10.625 16.2583V4.66667C10.625 4.35833 10.8 4.075 11.075 3.925C12.6 3.1 14.9083 2.36667 16.475 2.23333H16.525C17.525 2.23333 18.3333 3.04167 18.3333 4.04167Z" fill="#292D32"/>
<path d="M8.92499 3.925C7.39999 3.1 5.09166 2.36667 3.52499 2.23333H3.46666C2.46666 2.23333 1.65833 3.04167 1.65833 4.04167V13.95C1.65833 14.7583 2.31666 15.5 3.12499 15.6L3.38333 15.6333C4.74999 15.8167 6.67499 16.3833 8.22499 17.0333C8.76666 17.2583 9.36666 16.85 9.36666 16.2583V4.66667C9.36666 4.35 9.19999 4.075 8.92499 3.925ZM4.16666 6.45H6.04166C6.38333 6.45 6.66666 6.73333 6.66666 7.075C6.66666 7.425 6.38333 7.7 6.04166 7.7H4.16666C3.82499 7.7 3.54166 7.425 3.54166 7.075C3.54166 6.73333 3.82499 6.45 4.16666 6.45ZM6.66666 10.2H4.16666C3.82499 10.2 3.54166 9.925 3.54166 9.575C3.54166 9.23333 3.82499 8.95 4.16666 8.95H6.66666C7.00833 8.95 7.29166 9.23333 7.29166 9.575C7.29166 9.925 7.00833 10.2 6.66666 10.2Z" fill="#292D32"/>
<path d="M16.8053 15.1038L16.8027 15.1041L16.5443 15.1374L16.5418 15.1378C15.1208 15.3284 13.1529 15.9099 11.5741 16.5719C11.3709 16.6556 11.125 16.503 11.125 16.2583V4.66667C11.125 4.55058 11.1917 4.43115 11.3138 4.36426C12.7805 3.57105 15.0082 2.86479 16.4966 2.73333H16.525C17.2489 2.73333 17.8333 3.31781 17.8333 4.04167V13.95C17.8333 14.5036 17.3654 15.0345 16.8053 15.1038ZM3.18898 15.1041L3.18638 15.1038C2.62627 15.0345 2.15833 14.5036 2.15833 13.95V4.04167C2.15833 3.31781 2.7428 2.73333 3.46666 2.73333H3.50336C4.99181 2.86479 7.21952 3.57105 8.68615 4.36427C8.80253 4.42799 8.86666 4.53589 8.86666 4.66667V16.2583C8.86666 16.5031 8.62053 16.6557 8.41736 16.5718C6.8386 15.9099 4.87077 15.3284 3.4498 15.1378L3.44731 15.1374L3.18898 15.1041ZM6.04166 5.95H4.16666C3.54885 5.95 3.04166 6.45719 3.04166 7.075C3.04166 7.70548 3.5532 8.2 4.16666 8.2H6.04166C6.65511 8.2 7.16666 7.70548 7.16666 7.075C7.16666 6.45719 6.65947 5.95 6.04166 5.95ZM4.16666 10.7H6.66666C7.28011 10.7 7.79166 10.2055 7.79166 9.575C7.79166 8.95719 7.28447 8.45 6.66666 8.45H4.16666C3.54885 8.45 3.04166 8.95719 3.04166 9.575C3.04166 10.2055 3.5532 10.7 4.16666 10.7Z" stroke="#121212" stroke-opacity="0.3"/>
</g>
</g>
</svg>
