<svg width="20" height="20" viewBox="0 0 20 20" fill="none" xmlns="http://www.w3.org/2000/svg">
<g id="book_5">
<mask id="mask0_351_123" style="mask-type:alpha" maskUnits="userSpaceOnUse" x="0" y="0" width="20" height="20">
<rect id="Bounding box" width="20" height="20" fill="#4F7471"/>
</mask>
<g mask="url(#mask0_351_123)">
<path id="book_5_2" d="M5.62504 18.3333C5.00004 18.3333 4.46185 18.1215 4.01046 17.6979C3.55907 17.2743 3.33337 16.75 3.33337 16.125V4.49998C3.33337 3.9722 3.49657 3.49998 3.82296 3.08331C4.14935 2.66665 4.57643 2.40276 5.10421 2.29165L11.3542 1.06248C11.8681 0.951369 12.3264 1.06248 12.7292 1.39581C13.132 1.72915 13.3334 2.1597 13.3334 2.68748V12.625C13.3334 13.0278 13.2084 13.3854 12.9584 13.6979C12.7084 14.0104 12.3889 14.2014 12 14.2708L5.43754 15.5833C5.31254 15.6111 5.20837 15.6771 5.12504 15.7812C5.04171 15.8854 5.00004 16 5.00004 16.125C5.00004 16.2778 5.06254 16.4062 5.18754 16.5104C5.31254 16.6146 5.45837 16.6666 5.62504 16.6666H15V4.16665C15 3.93054 15.0799 3.73262 15.2396 3.5729C15.3993 3.41317 15.5973 3.33331 15.8334 3.33331C16.0695 3.33331 16.2674 3.41317 16.4271 3.5729C16.5868 3.73262 16.6667 3.93054 16.6667 4.16665V16.6666C16.6667 17.125 16.5035 17.5173 16.1771 17.8437C15.8507 18.1701 15.4584 18.3333 15 18.3333H5.62504ZM6.83337 13.625C7.02782 13.5833 7.18754 13.4861 7.31254 13.3333C7.43754 13.1805 7.50004 13.0069 7.50004 12.8125V4.54165C7.50004 4.27776 7.39935 4.06248 7.19796 3.89581C6.99657 3.72915 6.76393 3.67359 6.50004 3.72915C6.3056 3.77081 6.14587 3.86804 6.02087 4.02081C5.89587 4.17359 5.83337 4.3472 5.83337 4.54165V12.8125C5.83337 13.0764 5.93407 13.2916 6.13546 13.4583C6.33685 13.625 6.56949 13.6805 6.83337 13.625Z" fill="white" fill-opacity="0.8"/>
</g>
</g>
</svg>
