<svg width="20" height="20" viewBox="0 0 20 20" fill="none" xmlns="http://www.w3.org/2000/svg">
<g id="id_card">
<mask id="mask0_351_136" style="mask-type:alpha" maskUnits="userSpaceOnUse" x="0" y="0" width="20" height="20">
<rect id="Bounding box" width="20" height="20" fill="#4F7471"/>
</mask>
<g mask="url(#mask0_351_136)">
<path id="id_card_2" d="M15 10.8333C15.2361 10.8333 15.434 10.7535 15.5937 10.5937C15.7534 10.434 15.8333 10.2361 15.8333 9.99999C15.8333 9.76388 15.7534 9.56597 15.5937 9.40624C15.434 9.24652 15.2361 9.16666 15 9.16666H12.5C12.2638 9.16666 12.0659 9.24652 11.9062 9.40624C11.7465 9.56597 11.6666 9.76388 11.6666 9.99999C11.6666 10.2361 11.7465 10.434 11.9062 10.5937C12.0659 10.7535 12.2638 10.8333 12.5 10.8333H15ZM15 8.33333C15.2361 8.33333 15.434 8.25347 15.5937 8.09374C15.7534 7.93402 15.8333 7.73611 15.8333 7.49999C15.8333 7.26388 15.7534 7.06597 15.5937 6.90624C15.434 6.74652 15.2361 6.66666 15 6.66666H12.5C12.2638 6.66666 12.0659 6.74652 11.9062 6.90624C11.7465 7.06597 11.6666 7.26388 11.6666 7.49999C11.6666 7.73611 11.7465 7.93402 11.9062 8.09374C12.0659 8.25347 12.2638 8.33333 12.5 8.33333H15ZM7.49996 10.8333C6.99996 10.8333 6.54857 10.8785 6.14579 10.9687C5.74301 11.059 5.38885 11.2014 5.08329 11.3958C4.79163 11.5764 4.5694 11.7812 4.41663 12.0104C4.26385 12.2396 4.18746 12.4861 4.18746 12.75C4.18746 12.9167 4.24996 13.0556 4.37496 13.1667C4.49996 13.2778 4.65274 13.3333 4.83329 13.3333H10.1666C10.3472 13.3333 10.5 13.2743 10.625 13.1562C10.75 13.0382 10.8125 12.8889 10.8125 12.7083C10.8125 12.4722 10.7361 12.2431 10.5833 12.0208C10.4305 11.7986 10.2083 11.5903 9.91663 11.3958C9.61107 11.2014 9.2569 11.059 8.85413 10.9687C8.45135 10.8785 7.99996 10.8333 7.49996 10.8333ZM7.49996 9.99999C7.95829 9.99999 8.35065 9.8368 8.67704 9.51041C9.00343 9.18402 9.16663 8.79166 9.16663 8.33333C9.16663 7.87499 9.00343 7.48263 8.67704 7.15624C8.35065 6.82986 7.95829 6.66666 7.49996 6.66666C7.04163 6.66666 6.64926 6.82986 6.32288 7.15624C5.99649 7.48263 5.83329 7.87499 5.83329 8.33333C5.83329 8.79166 5.99649 9.18402 6.32288 9.51041C6.64926 9.8368 7.04163 9.99999 7.49996 9.99999ZM3.33329 16.6667C2.87496 16.6667 2.4826 16.5035 2.15621 16.1771C1.82982 15.8507 1.66663 15.4583 1.66663 15V4.99999C1.66663 4.54166 1.82982 4.1493 2.15621 3.82291C2.4826 3.49652 2.87496 3.33333 3.33329 3.33333H16.6666C17.125 3.33333 17.5173 3.49652 17.8437 3.82291C18.1701 4.1493 18.3333 4.54166 18.3333 4.99999V15C18.3333 15.4583 18.1701 15.8507 17.8437 16.1771C17.5173 16.5035 17.125 16.6667 16.6666 16.6667H3.33329Z" fill="white" fill-opacity="0.8"/>
</g>
</g>
</svg>
