<svg width="20" height="20" viewBox="0 0 20 20" fill="none" xmlns="http://www.w3.org/2000/svg">
<g id="lab_profile">
<mask id="mask0_351_130" style="mask-type:alpha" maskUnits="userSpaceOnUse" x="0" y="0" width="20" height="20">
<rect id="Bounding box" width="20" height="20" fill="#4F7471"/>
</mask>
<g mask="url(#mask0_351_130)">
<path id="lab_profile_2" d="M7.50004 10H12.5C12.7362 10 12.9341 9.92014 13.0938 9.76042C13.2535 9.6007 13.3334 9.40278 13.3334 9.16667C13.3334 8.93056 13.2535 8.73264 13.0938 8.57292C12.9341 8.4132 12.7362 8.33334 12.5 8.33334H7.50004C7.26393 8.33334 7.06601 8.4132 6.90629 8.57292C6.74657 8.73264 6.66671 8.93056 6.66671 9.16667C6.66671 9.40278 6.74657 9.6007 6.90629 9.76042C7.06601 9.92014 7.26393 10 7.50004 10ZM7.50004 6.66667H12.5C12.7362 6.66667 12.9341 6.58681 13.0938 6.42709C13.2535 6.26737 13.3334 6.06945 13.3334 5.83334C13.3334 5.59723 13.2535 5.39931 13.0938 5.23959C12.9341 5.07987 12.7362 5.00001 12.5 5.00001H7.50004C7.26393 5.00001 7.06601 5.07987 6.90629 5.23959C6.74657 5.39931 6.66671 5.59723 6.66671 5.83334C6.66671 6.06945 6.74657 6.26737 6.90629 6.42709C7.06601 6.58681 7.26393 6.66667 7.50004 6.66667ZM16.625 17.0625L13.25 12.6667C13.0139 12.3472 12.7223 12.1007 12.375 11.9271C12.0278 11.7535 11.6528 11.6667 11.25 11.6667H3.33337V3.33334C3.33337 2.87501 3.49657 2.48264 3.82296 2.15626C4.14935 1.82987 4.54171 1.66667 5.00004 1.66667H15C15.4584 1.66667 15.8507 1.82987 16.1771 2.15626C16.5035 2.48264 16.6667 2.87501 16.6667 3.33334V16.6667C16.6667 16.7361 16.6632 16.8021 16.6563 16.8646C16.6493 16.9271 16.6389 16.9931 16.625 17.0625ZM5.00004 18.3333C4.54171 18.3333 4.14935 18.1701 3.82296 17.8438C3.49657 17.5174 3.33337 17.125 3.33337 16.6667V13.3333H11.25C11.3889 13.3333 11.5174 13.3646 11.6355 13.4271C11.7535 13.4896 11.8542 13.5764 11.9375 13.6875L15.4375 18.2708C15.3681 18.2986 15.2952 18.316 15.2188 18.3229C15.1424 18.3299 15.0695 18.3333 15 18.3333H5.00004Z" fill="white" fill-opacity="0.8"/>
</g>
</g>
</svg>
