<svg width="20" height="20" viewBox="0 0 20 20" fill="none" xmlns="http://www.w3.org/2000/svg">
<g id="local_mall">
<mask id="mask0_351_95" style="mask-type:alpha" maskUnits="userSpaceOnUse" x="0" y="0" width="20" height="20">
<rect id="Bounding box" width="20" height="20" fill="#FAFAFA"/>
</mask>
<g mask="url(#mask0_351_95)">
<path id="local_mall_2" d="M4.16667 18.3333C3.70833 18.3333 3.31597 18.1701 2.98958 17.8437C2.66319 17.5173 2.5 17.125 2.5 16.6666V6.66665C2.5 6.20831 2.66319 5.81595 2.98958 5.48956C3.31597 5.16317 3.70833 4.99998 4.16667 4.99998H5.83333C5.83333 3.8472 6.23958 2.86456 7.05208 2.05206C7.86458 1.23956 8.84722 0.833313 10 0.833313C11.1528 0.833313 12.1354 1.23956 12.9479 2.05206C13.7604 2.86456 14.1667 3.8472 14.1667 4.99998H15.8333C16.2917 4.99998 16.684 5.16317 17.0104 5.48956C17.3368 5.81595 17.5 6.20831 17.5 6.66665V16.6666C17.5 17.125 17.3368 17.5173 17.0104 17.8437C16.684 18.1701 16.2917 18.3333 15.8333 18.3333H4.16667ZM7.5 4.99998H12.5C12.5 4.30554 12.2569 3.71526 11.7708 3.22915C11.2847 2.74304 10.6944 2.49998 10 2.49998C9.30556 2.49998 8.71528 2.74304 8.22917 3.22915C7.74306 3.71526 7.5 4.30554 7.5 4.99998ZM9.97917 11.6666C11.0069 11.6666 11.9375 11.3264 12.7708 10.6458C13.6042 9.96526 14.0139 9.20137 14 8.35415C14 8.11804 13.9236 7.91665 13.7708 7.74998C13.6181 7.58331 13.4236 7.49998 13.1875 7.49998C12.9931 7.49998 12.8194 7.56248 12.6667 7.68748C12.5139 7.81248 12.4028 7.99998 12.3333 8.24998C12.1806 8.77776 11.8819 9.20137 11.4375 9.52081C10.9931 9.84026 10.5069 9.99998 9.97917 9.99998C9.45139 9.99998 8.96181 9.84026 8.51042 9.52081C8.05903 9.20137 7.76389 8.77776 7.625 8.24998C7.55556 7.98609 7.45139 7.79512 7.3125 7.67706C7.17361 7.55901 7.00694 7.49998 6.8125 7.49998C6.57639 7.49998 6.37847 7.58331 6.21875 7.74998C6.05903 7.91665 5.97917 8.11804 5.97917 8.35415C5.97917 9.20137 6.38889 9.96526 7.20833 10.6458C8.02778 11.3264 8.95139 11.6666 9.97917 11.6666Z" fill="white"/>
</g>
</g>
</svg>
