<?xml version="1.0" encoding="UTF-8"?>
<svg version="1.1" xmlns="http://www.w3.org/2000/svg" width="218" height="211">
<path d="M0 0 C71.94 0 143.88 0 218 0 C218 69.63 218 139.26 218 211 C146.06 211 74.12 211 0 211 C0 141.37 0 71.74 0 0 Z " fill="#D25754" transform="translate(0,0)"/>
<path d="M0 0 C7.15269442 -0.22849796 14.30444648 -0.38592406 21.45996094 -0.49438477 C23.89293585 -0.53960193 26.32566678 -0.60098912 28.7578125 -0.67895508 C32.25842416 -0.78834919 35.75580166 -0.83921234 39.2578125 -0.87890625 C40.34240753 -0.92535782 41.42700256 -0.97180939 42.54446411 -1.01966858 C49.92808641 -1.02458648 49.92808641 -1.02458648 52.94087219 1.85517883 C54.51153643 4.17026734 55.78042488 6.48451158 57 9 C57.61222412 10.03165283 58.22444824 11.06330566 58.85522461 12.1262207 C59.36577393 13.05007568 59.87632324 13.97393066 60.40234375 14.92578125 C60.98306641 15.97056641 61.56378906 17.01535156 62.16210938 18.09179688 C62.74798828 19.15462891 63.33386719 20.21746094 63.9375 21.3125 C65.11217788 23.434205 66.28795737 25.55530048 67.46484375 27.67578125 C68.03831543 28.71814941 68.61178711 29.76051758 69.20263672 30.83447266 C70.43339323 33.00208864 71.71405653 35.14190811 73.03564453 37.25537109 C73.6851709 38.29902832 74.33469727 39.34268555 75.00390625 40.41796875 C75.9002478 41.81245239 75.9002478 41.81245239 76.81469727 43.23510742 C78.29524297 46.68869755 78.01321585 48.41843459 77 52 C76.00708008 54.22802734 76.00708008 54.22802734 74.76953125 56.3359375 C74.30385742 57.13974854 73.83818359 57.94355957 73.35839844 58.77172852 C72.84825195 59.63080811 72.33810547 60.4898877 71.8125 61.375 C71.01054199 62.7515979 71.01054199 62.7515979 70.19238281 64.15600586 C68.4699554 67.10898762 66.73521993 70.05452091 65 73 C63.31843218 75.87493852 61.6399746 78.7516753 59.96191406 81.62866211 C58.8129381 83.59774998 57.66252806 85.56600169 56.51074219 87.53344727 C53.24182902 93.1240419 50.00309912 98.73045686 46.80078125 104.359375 C46.44706451 104.98073837 46.09334778 105.60210175 45.72891235 106.24229431 C44.01281784 109.25829768 42.30021077 112.27620666 40.59277344 115.29711914 C39.34125057 117.50046146 38.06108776 119.68781976 36.75073242 121.85668945 C34.91699762 124.93233432 34.91699762 124.93233432 33.8840332 128.24291992 C32.352729 132.00839726 31.36396631 133.65459843 28 136 C19.56214132 137.87284013 10.62914689 137.02434192 2.0625 136.6875 C-0.36252014 136.63230129 -2.7876599 136.58211501 -5.21289062 136.53710938 C-11.14454205 136.41610914 -17.07171977 136.23229285 -23 136 C-19.72485605 129.32526079 -16.40964067 122.73848301 -12.5625 116.375 C-11.69030953 114.91080899 -10.81929455 113.44591736 -9.94921875 111.98046875 C-9.47919434 111.18946777 -9.00916992 110.3984668 -8.52490234 109.58349609 C-5.60623907 104.63868424 -2.74244333 99.6621305 0.125 94.6875 C0.75035645 93.60315674 1.37571289 92.51881348 2.02001953 91.40161133 C5.50888681 85.34512417 8.98500615 79.28155005 12.44921875 73.2109375 C12.81547363 72.56923111 13.18172852 71.92752472 13.55908203 71.26637268 C15.34021416 68.14501284 17.11978366 65.02277653 18.89697266 61.89916992 C19.53554199 60.77873291 20.17411133 59.6582959 20.83203125 58.50390625 C21.39639893 57.51205322 21.9607666 56.5202002 22.54223633 55.49829102 C23.63338555 53.62829772 24.79904121 51.80143818 26 50 C25.65061131 46.28356767 24.37873397 43.47050298 22.59375 40.2265625 C22.10132813 39.32631348 21.60890625 38.42606445 21.1015625 37.49853516 C20.57304687 36.55026855 20.04453125 35.60200195 19.5 34.625 C18.96117187 33.64708496 18.42234375 32.66916992 17.8671875 31.66162109 C14.04806581 24.7711382 10.0801102 17.98942067 5.9375 11.2890625 C4.47732807 8.81030289 3.15265092 6.36674904 1.87890625 3.79443359 C1.52513916 3.08161224 1.17137207 2.36879089 0.80688477 1.6343689 C0.54061279 1.09502716 0.27434082 0.55568542 0 0 Z " fill="#FEFEFE" transform="translate(115,57)"/>
<path d="M0 0 C16.83 0 33.66 0 51 0 C53.330625 4.08375 55.66125 8.1675 58.0625 12.375 C65.37054333 25.17007586 72.72063793 37.94046218 80.09277344 50.69873047 C83.45992626 56.52702546 86.82361698 62.3573174 90.1875 68.1875 C90.81148682 69.26854004 91.43547363 70.34958008 92.07836914 71.46337891 C93.22368071 73.44812409 94.36381841 75.43586837 95.49755859 77.42724609 C96.41723546 79.00208438 97.3713009 80.5581982 98.38134766 82.07666016 C99.55078125 83.86328125 99.55078125 83.86328125 101 87 C99.90559116 91.42852919 97.96770231 95.04346024 95.62109375 98.9296875 C94.94626953 100.05632812 94.27144531 101.18296875 93.57617188 102.34375 C92.86363859 103.52104968 92.15074777 104.69813304 91.4375 105.875 C85.44299606 115.82599039 79.69959255 125.86739103 74 136 C57.17 136 40.34 136 23 136 C24.4605027 131.61849191 25.63340009 128.60233479 27.90625 124.76171875 C28.48117188 123.78436768 29.05609375 122.8070166 29.6484375 121.80004883 C30.25945313 120.77290771 30.87046875 119.7457666 31.5 118.6875 C32.12132812 117.62748779 32.74265625 116.56747559 33.3828125 115.4753418 C36.27237189 110.55424676 39.19431838 105.659784 42.21875 100.8203125 C42.69248047 100.05114502 43.16621094 99.28197754 43.65429688 98.48950195 C44.53053746 97.07196979 45.42181847 95.66359019 46.33007812 94.26635742 C48.59225462 90.65120201 48.59225462 90.65120201 48.515625 86.53125 C48.01546875 85.6959375 47.5153125 84.860625 47 84 C46.36795401 82.80696132 45.73794764 81.61284106 45.109375 80.41796875 C44.32679167 79.00565834 43.54003315 77.59565659 42.75 76.1875 C42.31381348 75.40616699 41.87762695 74.62483398 41.42822266 73.81982422 C37.24582998 66.36653007 32.93336754 58.9902744 28.61206055 51.61694336 C23.20400159 42.38045394 17.88919726 33.09254815 12.59326172 23.79150391 C11.96564941 22.68983887 11.33803711 21.58817383 10.69140625 20.453125 C10.08441895 19.38642578 9.47743164 18.31972656 8.85205078 17.22070312 C6.36986373 12.9041975 3.82348584 8.62638927 1.26538086 4.35449219 C0 2 0 2 0 0 Z " fill="#FEFEFE" transform="translate(30,17)"/>
<path d="M0 0 C0.495 0.99 0.495 0.99 1 2 C-0.18066406 4.49584961 -0.18066406 4.49584961 -2.015625 7.65234375 C-2.51131989 8.5127401 -2.51131989 8.5127401 -3.01702881 9.39051819 C-4.08720648 11.24396108 -5.1683526 13.09073193 -6.25 14.9375 C-7.27894297 16.71301237 -8.30559549 18.489772 -9.32868958 20.2686615 C-10.04562564 21.49818187 -10.77659041 22.71961355 -11.52030945 23.93312073 C-13.73089606 27.58042408 -15.51329483 31.16797412 -17.08129883 35.13842773 C-19.31367634 40.38962687 -21.4913348 45.33296205 -26 49 C-34.2977545 52.03207376 -43.55167829 50.78252377 -52.1875 50.1875 C-54.5940676 50.09209256 -57.00099821 50.0054178 -59.40820312 49.92773438 C-65.28011054 49.71929285 -71.13836306 49.40245709 -77 49 C-75.75358389 44.92943999 -74.26020682 41.42255389 -72.09375 37.76171875 C-71.51906982 36.78404541 -70.94438965 35.80637207 -70.35229492 34.79907227 C-69.7410376 33.77225342 -69.12978027 32.74543457 -68.5 31.6875 C-67.87649658 30.63038818 -67.25299316 29.57327637 -66.6105957 28.48413086 C-65.34629941 26.341297 -64.0797946 24.19976459 -62.81103516 22.05957031 C-61.16064429 19.27139314 -59.5206609 16.47752633 -57.88671875 13.6796875 C-56.98699675 12.14061472 -56.08725837 10.60155151 -55.1875 9.0625 C-54.77371094 8.35375732 -54.35992187 7.64501465 -53.93359375 6.91479492 C-51.11416887 2.11416887 -51.11416887 2.11416887 -50 1 C-48.43551617 0.87736612 -46.86567228 0.82220478 -45.29663086 0.79467773 C-44.29566879 0.77473251 -43.29470673 0.75478729 -42.26341248 0.73423767 C-41.1748848 0.71752518 -40.08635712 0.70081268 -38.96484375 0.68359375 C-37.85645645 0.66281265 -36.74806915 0.64203156 -35.60609436 0.62062073 C-32.04996192 0.55500377 -28.49375297 0.49618404 -24.9375 0.4375 C-22.53319507 0.39432632 -20.12889801 0.35071242 -17.72460938 0.30664062 C-11.81648815 0.19931008 -5.90829009 0.09756669 0 0 Z " fill="#D8D7D7" transform="translate(130,104)"/>
<path d="M0 0 C7.15269442 -0.22849796 14.30444648 -0.38592406 21.45996094 -0.49438477 C23.89293585 -0.53960193 26.32566678 -0.60098912 28.7578125 -0.67895508 C32.25842416 -0.78834919 35.75580166 -0.83921234 39.2578125 -0.87890625 C40.34240753 -0.92535782 41.42700256 -0.97180939 42.54446411 -1.01966858 C49.92808641 -1.02458648 49.92808641 -1.02458648 52.94087219 1.85517883 C54.51153643 4.17026734 55.78042488 6.48451158 57 9 C57.61222412 10.03165283 58.22444824 11.06330566 58.85522461 12.1262207 C59.36577393 13.05007568 59.87632324 13.97393066 60.40234375 14.92578125 C60.98306641 15.97056641 61.56378906 17.01535156 62.16210938 18.09179688 C62.74798828 19.15462891 63.33386719 20.21746094 63.9375 21.3125 C65.11217788 23.434205 66.28795737 25.55530048 67.46484375 27.67578125 C68.03960449 28.71299316 68.61436523 29.75020508 69.20654297 30.81884766 C71.63767717 35.13108271 74.16916671 39.3816107 76.71704102 43.62573242 C78 46 78 46 78 48 C52.755 48.495 52.755 48.495 27 49 C25.02 45.04 23.04 41.08 21 37 C19.72880863 34.73940476 18.43111661 32.49316844 17.08984375 30.2734375 C16.58766075 29.43554184 16.58766075 29.43554184 16.07533264 28.58071899 C15.03350712 26.84296016 13.98621204 25.10861012 12.9375 23.375 C11.54637332 21.07288996 10.16065986 18.76777804 8.77734375 16.4609375 C8.17140381 15.45853027 7.56546387 14.45612305 6.94116211 13.42333984 C4.4517029 9.03304968 2.22092713 4.53072379 0 0 Z " fill="#D8D7D7" transform="translate(115,57)"/>
</svg>
