<svg width="20" height="20" viewBox="0 0 20 20" fill="none" xmlns="http://www.w3.org/2000/svg">
<g id="move_item">
<mask id="mask0_351_148" style="mask-type:alpha" maskUnits="userSpaceOnUse" x="0" y="0" width="20" height="20">
<rect id="Bounding box" width="20" height="20" fill="#D9D9D9"/>
</mask>
<g mask="url(#mask0_351_148)">
<path id="move_item_2" d="M16.7917 10.8333H7.5C7.26389 10.8333 7.06597 10.7535 6.90625 10.5938C6.74653 10.434 6.66667 10.2361 6.66667 10C6.66667 9.76389 6.74653 9.56597 6.90625 9.40625C7.06597 9.24653 7.26389 9.16667 7.5 9.16667H16.7917L16.0833 8.45833C15.9167 8.29167 15.8368 8.09722 15.8438 7.875C15.8507 7.65278 15.9306 7.45833 16.0833 7.29167C16.25 7.125 16.4479 7.03819 16.6771 7.03125C16.9063 7.02431 17.1042 7.10417 17.2708 7.27083L19.4167 9.41667C19.5833 9.58333 19.6667 9.77778 19.6667 10C19.6667 10.2222 19.5833 10.4167 19.4167 10.5833L17.2708 12.7292C17.1042 12.8958 16.9063 12.9757 16.6771 12.9688C16.4479 12.9618 16.25 12.875 16.0833 12.7083C15.9306 12.5417 15.8507 12.3472 15.8438 12.125C15.8368 11.9028 15.9167 11.7083 16.0833 11.5417L16.7917 10.8333ZM12.5 6.66667V4.16667H4.16667V15.8333H12.5V13.3333C12.5 13.0972 12.5799 12.8993 12.7396 12.7396C12.8993 12.5799 13.0972 12.5 13.3333 12.5C13.5694 12.5 13.7674 12.5799 13.9271 12.7396C14.0868 12.8993 14.1667 13.0972 14.1667 13.3333V15.8333C14.1667 16.2917 14.0035 16.684 13.6771 17.0104C13.3507 17.3368 12.9583 17.5 12.5 17.5H4.16667C3.70833 17.5 3.31597 17.3368 2.98958 17.0104C2.66319 16.684 2.5 16.2917 2.5 15.8333V4.16667C2.5 3.70833 2.66319 3.31597 2.98958 2.98958C3.31597 2.66319 3.70833 2.5 4.16667 2.5H12.5C12.9583 2.5 13.3507 2.66319 13.6771 2.98958C14.0035 3.31597 14.1667 3.70833 14.1667 4.16667V6.66667C14.1667 6.90278 14.0868 7.10069 13.9271 7.26042C13.7674 7.42014 13.5694 7.5 13.3333 7.5C13.0972 7.5 12.8993 7.42014 12.7396 7.26042C12.5799 7.10069 12.5 6.90278 12.5 6.66667Z" fill="white" fill-opacity="0.8"/>
</g>
</g>
</svg>
