<svg width="24" height="24" viewBox="0 0 24 24" fill="none" xmlns="http://www.w3.org/2000/svg">
<g id="UZ" clip-path="url(#clip0_369_3573)">
<path id="Vector" d="M0.566869 8.34788C0.199275 9.4995 0.000197274 10.7264 0.000244149 11.9999C0.000197274 13.2735 0.199322 14.5005 0.566916 15.6521L12.0002 16.1739L23.4336 15.6522C23.8011 14.5005 24.0003 13.2735 24.0003 12C24.0003 10.7264 23.8012 9.4995 23.4336 8.34783L12.0002 7.82611L0.566869 8.34788Z" fill="#F0F0F0"/>
<g id="Group">
<path id="Vector_2" d="M23.4332 8.34783L11.9999 7.82611L0.5665 8.34783C0.457563 8.68927 0.363766 9.03741 0.285156 9.39131H23.7144C23.6359 9.03736 23.5421 8.68917 23.4332 8.34783Z" fill="#D80027"/>
<path id="Vector_3" d="M0.285034 14.609C0.36355 14.9629 0.457347 15.311 0.566284 15.6524L0.567409 15.6525L11.9996 16.1742L23.4329 15.6525C23.5418 15.3111 23.6356 14.9629 23.7142 14.609H0.285034Z" fill="#D80027"/>
</g>
<path id="Vector_4" d="M12.0004 24.0007C17.3543 24.0007 21.8885 20.4943 23.4338 15.6529H0.567139C2.11237 20.4943 6.64669 24.0007 12.0004 24.0007Z" fill="#6DA544"/>
<path id="Vector_5" d="M12.0001 -0.000793457C6.64632 -0.000746582 2.1121 3.50564 0.566772 8.34703L23.4334 8.34708C21.8882 3.5056 17.354 -0.000840332 12.0001 -0.000793457Z" fill="#338AF3"/>
<g id="Group_2">
<path id="Vector_6" d="M5.48351 4.9563C5.48351 3.83238 6.2734 2.89347 7.32823 2.66313C7.16614 2.62769 6.9979 2.60852 6.82512 2.60852C5.52847 2.60852 4.47729 3.65965 4.47729 4.95635C4.47729 6.25305 5.52837 7.30418 6.82512 7.30418C6.9979 7.30418 7.16609 7.28496 7.32823 7.24957C6.27345 7.01913 5.48351 6.08023 5.48351 4.9563Z" fill="#F0F0F0"/>
<path id="Vector_7" d="M8.71543 6.02246L8.87434 6.5116H9.38865L8.97259 6.81395L9.13149 7.30309L8.71543 7.00079L8.29927 7.30309L8.45823 6.81395L8.04211 6.5116H8.55643L8.71543 6.02246Z" fill="#F0F0F0"/>
<path id="Vector_8" d="M10.3577 6.02246L10.5166 6.5116H11.0309L10.6148 6.81395L10.7738 7.30309L10.3577 7.00079L9.94156 7.30309L10.1005 6.81395L9.68445 6.5116H10.1987L10.3577 6.02246Z" fill="#F0F0F0"/>
<path id="Vector_9" d="M11.9988 6.02246L12.1577 6.5116H12.672L12.2559 6.81395L12.4148 7.30309L11.9988 7.00079L11.5826 7.30309L11.7416 6.81395L11.3254 6.5116H11.8398L11.9988 6.02246Z" fill="#F0F0F0"/>
<path id="Vector_10" d="M13.641 6.02246L13.7999 6.5116H14.3142L13.8981 6.81395L14.0571 7.30309L13.641 7.00079L13.2248 7.30309L13.3838 6.81395L12.9677 6.5116H13.482L13.641 6.02246Z" fill="#F0F0F0"/>
<path id="Vector_11" d="M15.2822 6.02246L15.4412 6.5116H15.9555L15.5394 6.81395L15.6984 7.30309L15.2822 7.00079L14.8661 7.30309L15.0251 6.81395L14.609 6.5116H15.1233L15.2822 6.02246Z" fill="#F0F0F0"/>
<path id="Vector_12" d="M10.3577 4.31519L10.5166 4.80428H11.0309L10.6148 5.10667L10.7738 5.59577L10.3577 5.29347L9.94156 5.59577L10.1005 5.10667L9.68445 4.80428H10.1987L10.3577 4.31519Z" fill="#F0F0F0"/>
<path id="Vector_13" d="M11.9988 4.31519L12.1577 4.80428H12.672L12.2559 5.10667L12.4148 5.59577L11.9988 5.29347L11.5826 5.59577L11.7416 5.10667L11.3254 4.80428H11.8398L11.9988 4.31519Z" fill="#F0F0F0"/>
<path id="Vector_14" d="M13.641 4.31519L13.7999 4.80428H14.3142L13.8981 5.10667L14.0571 5.59577L13.641 5.29347L13.2248 5.59577L13.3838 5.10667L12.9677 4.80428H13.482L13.641 4.31519Z" fill="#F0F0F0"/>
<path id="Vector_15" d="M15.2822 4.31519L15.4412 4.80428H15.9555L15.5394 5.10667L15.6984 5.59577L15.2822 5.29347L14.8661 5.59577L15.0251 5.10667L14.609 4.80428H15.1233L15.2822 4.31519Z" fill="#F0F0F0"/>
<path id="Vector_16" d="M11.9988 2.60809L12.1577 3.09728H12.672L12.2559 3.39958L12.4148 3.88877L11.9988 3.58647L11.5826 3.88877L11.7416 3.39958L11.3254 3.09728H11.8398L11.9988 2.60809Z" fill="#F0F0F0"/>
<path id="Vector_17" d="M13.641 2.60809L13.7999 3.09728H14.3142L13.8981 3.39958L14.0571 3.88877L13.641 3.58647L13.2248 3.88877L13.3838 3.39958L12.9677 3.09728H13.482L13.641 2.60809Z" fill="#F0F0F0"/>
<path id="Vector_18" d="M15.2822 2.60809L15.4412 3.09728H15.9555L15.5394 3.39958L15.6984 3.88877L15.2822 3.58647L14.8661 3.88877L15.0251 3.39958L14.609 3.09728H15.1233L15.2822 2.60809Z" fill="#F0F0F0"/>
</g>
</g>
<defs>
<clipPath id="clip0_369_3573">
<rect width="24" height="24" fill="white"/>
</clipPath>
</defs>
</svg>
